<svg width="14" height="14" viewBox="0 0 14 14" fill="none" xmlns="http://www.w3.org/2000/svg">
<path d="M12.9988 2.54468V5.81741H9.72607" stroke="#464E67" stroke-linecap="round" stroke-linejoin="round"/>
<path d="M1 11.2718V7.99902H4.27273" stroke="#464E67" stroke-linecap="round" stroke-linejoin="round"/>
<path d="M2.36909 5.27144C2.64573 4.48968 3.11589 3.79075 3.73571 3.23985C4.35553 2.68895 5.1048 2.30404 5.91361 2.12103C6.72242 1.93803 7.56441 1.9629 8.36101 2.19331C9.15761 2.42373 9.88287 2.85219 10.4691 3.43871L13 5.81689M1 7.99871L3.53091 10.3769C4.11714 10.9634 4.84239 11.3919 5.63899 11.6223C6.43559 11.8527 7.27758 11.8776 8.08639 11.6946C8.8952 11.5116 9.64447 11.1267 10.2643 10.5758C10.8841 10.0249 11.3543 9.32592 11.6309 8.54416" stroke="#464E67" stroke-linecap="round" stroke-linejoin="round"/>
</svg>
