<svg width="14" height="14" viewBox="0 0 14 14" fill="none" xmlns="http://www.w3.org/2000/svg">
<g clip-path="url(#clip0_73_220)">
<path d="M6.26587 2.03442H2.0912C1.77486 2.03442 1.47148 2.16009 1.24779 2.38378C1.0241 2.60746 0.898438 2.91085 0.898438 3.22719V11.5765C0.898438 11.8929 1.0241 12.1963 1.24779 12.4199C1.47148 12.6436 1.77486 12.7693 2.0912 12.7693H10.4405C10.7569 12.7693 11.0603 12.6436 11.284 12.4199C11.5076 12.1963 11.6333 11.8929 11.6333 11.5765V7.40186" stroke="#464E67" stroke-linecap="round" stroke-linejoin="round"/>
<path d="M10.7386 1.13983C10.9758 0.902576 11.2976 0.769287 11.6331 0.769287C11.9687 0.769287 12.2905 0.902576 12.5277 1.13983C12.765 1.37709 12.8983 1.69887 12.8983 2.0344C12.8983 2.36993 12.765 2.69172 12.5277 2.92898L6.86209 8.5946L4.47656 9.19099L5.07294 6.80546L10.7386 1.13983Z" stroke="#464E67" stroke-linecap="round" stroke-linejoin="round"/>
</g>
<defs>
<clipPath id="clip0_73_220">
<rect width="14" height="14" fill="white"/>
</clipPath>
</defs>
</svg>
