<svg width="16" height="16" viewBox="0 0 16 16" fill="none" xmlns="http://www.w3.org/2000/svg">
<path d="M13.2 7.30005H3.4C2.6268 7.30005 2 7.92685 2 8.70005V13.6C2 14.3732 2.6268 15 3.4 15H13.2C13.9732 15 14.6 14.3732 14.6 13.6V8.70005C14.6 7.92685 13.9732 7.30005 13.2 7.30005Z" stroke="white" stroke-width="2" stroke-linecap="round" stroke-linejoin="round"/>
<path d="M4.7998 7.3V4.5C4.7998 3.57174 5.16855 2.6815 5.82493 2.02513C6.48131 1.36875 7.37155 1 8.2998 1C9.22806 1 10.1183 1.36875 10.7747 2.02513C11.4311 2.6815 11.7998 3.57174 11.7998 4.5V7.3" stroke="white" stroke-width="2" stroke-linecap="round" stroke-linejoin="round"/>
</svg>
