<svg width="164" height="26" viewBox="0 0 164 26" fill="none" xmlns="http://www.w3.org/2000/svg">
<g clip-path="url(#clip0_73_99)">
<path d="M23.8546 6.98605C24.1406 5.4172 22.9875 4.04501 21.4946 3.96456C20.7794 3.92433 20.1045 4.25062 19.6084 4.76463C18.8173 5.58704 18.7323 6.30666 18.8486 6.95476C18.8486 6.95476 18.9514 7.66543 17.7758 8.79626C17.1054 9.43989 16.2785 9.6008 15.8092 9.63208C15.0359 9.17618 14.1375 8.91247 13.1766 8.91247C12.676 8.91247 12.1932 8.98845 11.7329 9.11807C11.7329 9.11807 10.4233 8.89459 8.78736 7.53134C7.48669 6.44522 7.24532 4.2238 7.24532 4.2238C7.27661 4.03607 7.29896 3.83941 7.29896 3.63827C7.29002 1.39003 5.25186 -0.37995 2.92316 0.0714854C1.50628 0.348604 0.36205 1.48837 0.0849316 2.90972C-0.366504 5.23841 1.40348 7.27657 3.65172 7.27657C3.82604 7.27657 4.00035 7.2587 4.16573 7.23635L4.1255 7.27657C4.1255 7.27657 5.21163 7.12014 6.93692 8.91247C8.40296 10.4366 8.22418 12.4927 8.22418 12.4927H8.22865C8.0588 13.0022 7.96494 13.5475 7.96494 14.1196C7.96494 14.6381 8.03645 15.4382 8.1616 16.3053C8.08562 17.0964 7.94706 17.6998 6.6598 18.482C5.14458 19.4028 4.34452 19.1569 3.6249 19.0854C2.82483 18.71 1.84151 18.7502 1.03697 19.3312C0.11175 20.0017 -0.250293 21.2532 0.169855 22.3125C0.741971 23.7562 2.41362 24.3417 3.74111 23.6311C4.15679 23.4076 4.48754 23.0858 4.7155 22.7058C4.89428 22.4064 5.01496 21.7583 5.35913 21.3426C5.94912 20.7839 6.38268 20.5246 7.54926 19.9123C8.78736 19.2642 9.36394 18.8351 10.5037 19.0586C11.5228 19.3044 12.3497 19.3402 13.2749 19.3223C16.0461 19.2687 18.3435 16.9444 18.3748 14.1733C18.3837 13.2436 18.1468 12.3675 17.7311 11.6077C17.8518 11.2635 18.1155 10.6735 18.6787 10.0075C19.3447 9.21194 20.6677 9.01974 20.8286 8.99739C21.1996 9.07338 21.6019 9.07338 22.0175 8.9661C22.9517 8.72027 23.6803 7.93361 23.8546 6.98605Z" fill="url(#paint0_linear_73_99)"/>
<path d="M25.5681 18.4364C27.4515 18.13 28.7299 16.3548 28.4235 14.4714C28.1172 12.588 26.342 11.3096 24.4586 11.616C22.5751 11.9224 21.2967 13.6976 21.6031 15.581C21.9095 17.4644 23.6847 18.7428 25.5681 18.4364Z" fill="url(#paint1_linear_73_99)"/>
<path d="M14.3432 4.85398C15.398 4.85398 16.2562 4.00028 16.2562 2.94097C16.2562 1.88166 15.4025 1.02795 14.3432 1.02795C13.2839 1.02795 12.4302 1.88166 12.4302 2.94097C12.4302 4.00028 13.2839 4.85398 14.3432 4.85398Z" fill="url(#paint2_linear_73_99)"/>
<path d="M5.02402 14.0079C5.02402 12.953 4.17032 12.0948 3.11101 12.0948C2.0517 12.0948 1.198 12.9486 1.198 14.0079C1.198 15.0672 2.0517 15.9209 3.11101 15.9209C4.17032 15.9209 5.02402 15.0672 5.02402 14.0079Z" fill="url(#paint3_linear_73_99)"/>
<path d="M41.094 20.994V7.12461H36.7942V4.05396H48.8489V7.12461H44.6206V20.9984H41.094V20.994Z" fill="white"/>
<path d="M66.9778 20.994V4.05396H70.3881L76.735 12.4703H75.1438L81.3075 4.05396H84.7178V20.9984H81.1913V7.94256L82.6037 8.2599L76.078 16.6763H75.6221L69.3244 8.2599L70.5088 7.94256V20.9984H66.9823L66.9778 20.994Z" fill="white"/>
<path d="M91.3106 21.2667C90.4166 21.2667 89.6434 21.1236 88.9908 20.8331C88.3382 20.547 87.8376 20.1314 87.489 19.595C87.1404 19.0586 86.9661 18.415 86.9661 17.673C86.9661 16.9758 87.127 16.359 87.4443 15.8181C87.7617 15.2818 88.2533 14.8303 88.9104 14.4638C89.5719 14.1018 90.3943 13.8425 91.3776 13.6906L95.1768 13.0782V15.5812L91.9944 16.1489C91.5072 16.2383 91.1363 16.3947 90.8815 16.6137C90.6222 16.8327 90.4971 17.1501 90.4971 17.5568C90.4971 17.9368 90.6401 18.2318 90.9306 18.4418C91.2167 18.6564 91.5743 18.7592 91.9989 18.7592C92.5576 18.7592 93.0537 18.6385 93.4784 18.3971C93.903 18.1558 94.2337 17.825 94.4662 17.4093C94.703 16.9937 94.8193 16.5333 94.8193 16.0327V12.8056C94.8193 12.3363 94.6315 11.9429 94.2605 11.6211C93.8896 11.3038 93.3845 11.1429 92.7498 11.1429C92.1151 11.1429 91.61 11.3083 91.1452 11.6435C90.6803 11.9787 90.3451 12.4167 90.1351 12.962L87.4041 11.6658C87.6455 10.9686 88.0343 10.3696 88.5617 9.86902C89.0936 9.36842 89.7283 8.98403 90.4703 8.71138C91.2122 8.43873 92.0257 8.30017 92.9018 8.30017C93.9477 8.30017 94.8729 8.4879 95.6774 8.86782C96.482 9.24774 97.1077 9.77516 97.5547 10.4501C98.0016 11.125 98.2251 11.9117 98.2251 12.8056V20.994H95.0427V18.9916L95.816 18.853C95.4539 19.3983 95.0517 19.8498 94.6092 20.2073C94.1711 20.5649 93.675 20.8286 93.1297 21.0029C92.5844 21.1773 91.9765 21.2622 91.3106 21.2622V21.2667Z" fill="white"/>
<path d="M100.724 20.9939V8.57721H103.906V11.0355L103.723 10.4902C104.009 9.74826 104.478 9.1985 105.122 8.84092C105.766 8.48335 106.521 8.30457 107.384 8.30457C108.322 8.30457 109.145 8.50123 109.851 8.89456C110.557 9.28789 111.107 9.83766 111.5 10.5439C111.893 11.2501 112.09 12.0725 112.09 13.0111V20.9939H108.68V13.7397C108.68 13.2569 108.586 12.8368 108.394 12.4882C108.206 12.1395 107.938 11.8669 107.598 11.6702C107.258 11.4736 106.861 11.3752 106.405 11.3752C105.949 11.3752 105.569 11.4736 105.22 11.6702C104.872 11.8669 104.603 12.1395 104.411 12.4882C104.224 12.8368 104.125 13.2525 104.125 13.7397V20.9939H100.715H100.724Z" fill="white"/>
<path d="M118.191 21.2667C117.297 21.2667 116.524 21.1236 115.871 20.8331C115.219 20.547 114.718 20.1314 114.37 19.595C114.021 19.0586 113.847 18.415 113.847 17.673C113.847 16.9758 114.008 16.359 114.325 15.8181C114.642 15.2818 115.134 14.8303 115.791 14.4638C116.452 14.1018 117.275 13.8425 118.258 13.6906L122.057 13.0782V15.5812L118.875 16.1489C118.388 16.2383 118.017 16.3947 117.762 16.6137C117.503 16.8327 117.378 17.1501 117.378 17.5568C117.378 17.9368 117.521 18.2318 117.811 18.4418C118.097 18.6564 118.455 18.7592 118.88 18.7592C119.438 18.7592 119.934 18.6385 120.359 18.3971C120.784 18.1558 121.114 17.825 121.347 17.4093C121.584 16.9937 121.7 16.5333 121.7 16.0327V12.8056C121.7 12.3363 121.512 11.9429 121.141 11.6211C120.77 11.3038 120.265 11.1429 119.63 11.1429C118.996 11.1429 118.491 11.3083 118.026 11.6435C117.561 11.9787 117.226 12.4167 117.016 12.962L114.285 11.6658C114.526 10.9686 114.915 10.3696 115.442 9.86902C115.974 9.36842 116.609 8.98403 117.351 8.71138C118.093 8.43873 118.906 8.30017 119.782 8.30017C120.828 8.30017 121.754 8.4879 122.558 8.86782C123.363 9.24774 123.988 9.77516 124.435 10.4501C124.882 11.125 125.106 11.9117 125.106 12.8056V20.994H121.923V18.9916L122.697 18.853C122.335 19.3983 121.932 19.8498 121.49 20.2073C121.052 20.5649 120.556 20.8286 120.01 21.0029C119.465 21.1773 118.857 21.2622 118.191 21.2622V21.2667Z" fill="white"/>
<path d="M133.701 26C132.744 26 131.859 25.8391 131.041 25.5217C130.223 25.2044 129.522 24.7619 128.936 24.1898C128.351 23.6221 127.93 22.9517 127.676 22.1784L130.836 21.0655C131.001 21.6421 131.345 22.098 131.859 22.4287C132.373 22.7639 132.99 22.9293 133.701 22.9293C134.26 22.9293 134.747 22.8265 135.158 22.6209C135.569 22.4153 135.882 22.1158 136.101 21.7225C136.32 21.3292 136.432 20.8643 136.432 20.3369V17.4942L137.093 18.3122C136.669 19.0094 136.123 19.5279 135.457 19.8676C134.791 20.2073 134.009 20.3771 133.115 20.3771C131.962 20.3771 130.934 20.1179 130.022 19.5905C129.115 19.0675 128.4 18.3479 127.886 17.4316C127.372 16.5154 127.113 15.4739 127.113 14.3029C127.113 13.1318 127.372 12.0993 127.886 11.1965C128.4 10.2936 129.106 9.58739 130 9.06891C130.894 8.5549 131.908 8.29565 133.048 8.29565C133.942 8.29565 134.724 8.47444 135.39 8.83201C136.056 9.18959 136.624 9.73041 137.098 10.459L136.664 11.2769V8.5683H139.847V20.328C139.847 21.4186 139.583 22.393 139.051 23.2511C138.519 24.1093 137.795 24.7798 136.879 25.2625C135.962 25.7497 134.903 25.991 133.705 25.991L133.701 26ZM133.589 17.2886C134.166 17.2886 134.666 17.1679 135.091 16.9266C135.515 16.6852 135.846 16.341 136.079 15.903C136.316 15.465 136.432 14.9465 136.432 14.3565C136.432 13.7665 136.311 13.248 136.07 12.7966C135.828 12.3496 135.493 12.001 135.069 11.7507C134.644 11.5004 134.152 11.3752 133.589 11.3752C133.026 11.3752 132.503 11.5004 132.056 11.7507C131.609 12.001 131.26 12.3496 131.01 12.7966C130.76 13.2436 130.635 13.762 130.635 14.3565C130.635 14.951 130.76 15.4426 131.01 15.8807C131.26 16.3187 131.609 16.6673 132.056 16.9176C132.503 17.1679 133.012 17.2931 133.589 17.2931V17.2886Z" fill="white"/>
<path d="M148.325 21.2667C147.007 21.2667 145.863 20.9761 144.893 20.3906C143.923 19.8051 143.172 19.0229 142.64 18.0351C142.108 17.0518 141.844 15.9567 141.844 14.7588C141.844 13.561 142.122 12.4078 142.676 11.4379C143.23 10.468 143.977 9.70364 144.915 9.14047C145.854 8.58176 146.918 8.30017 148.098 8.30017C149.081 8.30017 149.952 8.45661 150.712 8.76502C151.472 9.07789 152.111 9.51145 152.634 10.0746C153.157 10.6378 153.555 11.2859 153.828 12.0189C154.1 12.7564 154.239 13.552 154.239 14.4191C154.239 14.6605 154.225 14.9019 154.203 15.1343C154.181 15.3712 154.141 15.5723 154.078 15.7377H144.777V13.2347H152.147L150.533 14.4191C150.685 13.7666 150.677 13.1855 150.511 12.6804C150.346 12.1709 150.051 11.7686 149.635 11.4736C149.219 11.1786 148.705 11.0311 148.102 11.0311C147.499 11.0311 147.002 11.1742 146.578 11.4647C146.153 11.7552 145.836 12.1754 145.621 12.7385C145.407 13.3017 145.326 13.9811 145.371 14.7856C145.308 15.4829 145.393 16.0953 145.621 16.6271C145.849 17.159 146.198 17.5702 146.667 17.8652C147.137 18.1602 147.704 18.3077 148.375 18.3077C148.983 18.3077 149.501 18.1871 149.935 17.9457C150.368 17.7043 150.703 17.3691 150.945 16.9445L153.676 18.2407C153.434 18.8486 153.05 19.376 152.527 19.8319C152.004 20.2878 151.387 20.6409 150.672 20.8912C149.961 21.1415 149.179 21.2667 148.33 21.2667H148.325Z" fill="white"/>
<path d="M156.241 20.994V8.57728H159.424V11.5585L159.196 11.125C159.468 10.0791 159.92 9.36841 160.55 8.99743C161.18 8.62645 161.927 8.43872 162.789 8.43872H163.518V11.3932H162.45C161.614 11.3932 160.939 11.6479 160.425 12.153C159.911 12.6625 159.652 13.3777 159.652 14.3029V20.9895H156.241V20.994Z" fill="white"/>
<path d="M52.3308 14.4906V11.5361H61.0645V14.4906H52.3308Z" fill="white"/>
</g>
<defs>
<linearGradient id="paint0_linear_73_99" x1="11.9474" y1="23.935" x2="11.9474" y2="-2.94029e-05" gradientUnits="userSpaceOnUse">
<stop stop-color="#8551F7"/>
<stop offset="0.36" stop-color="#8371F7"/>
<stop offset="0.41" stop-color="#767CF8"/>
<stop offset="0.56" stop-color="#5A97FB"/>
<stop offset="0.71" stop-color="#45AAFD"/>
<stop offset="0.86" stop-color="#39B6FE"/>
<stop offset="1" stop-color="#35BAFF"/>
</linearGradient>
<linearGradient id="paint1_linear_73_99" x1="25.0113" y1="18.4813" x2="25.0113" y2="11.5667" gradientUnits="userSpaceOnUse">
<stop stop-color="#856EF7"/>
<stop offset="1" stop-color="#5D94FB"/>
</linearGradient>
<linearGradient id="paint2_linear_73_99" x1="14.3432" y1="4.85398" x2="14.3432" y2="1.02795" gradientUnits="userSpaceOnUse">
<stop stop-color="#42BFFF"/>
<stop offset="1" stop-color="#3FA9F5"/>
</linearGradient>
<linearGradient id="paint3_linear_73_99" x1="3.11548" y1="15.9209" x2="3.11548" y2="12.0948" gradientUnits="userSpaceOnUse">
<stop stop-color="#8081F8"/>
<stop offset="1" stop-color="#5899FB"/>
</linearGradient>
<clipPath id="clip0_73_99">
<rect width="163.518" height="26" fill="white"/>
</clipPath>
</defs>
</svg>
