<svg width="30" height="26" viewBox="0 0 30 26" fill="none" xmlns="http://www.w3.org/2000/svg">
<g clip-path="url(#clip0_73_1899)">
<path d="M23.8546 6.98629C24.1406 5.41744 22.9875 4.04526 21.4946 3.9648C20.7794 3.92457 20.1045 4.25086 19.6084 4.76487C18.8173 5.58729 18.7323 6.3069 18.8486 6.955C18.8486 6.955 18.9514 7.66568 17.7758 8.7965C17.1054 9.44013 16.2785 9.60104 15.8092 9.63233C15.0359 9.17642 14.1375 8.91271 13.1766 8.91271C12.676 8.91271 12.1932 8.9887 11.7329 9.11832C11.7329 9.11832 10.4233 8.89483 8.78736 7.53159C7.48669 6.44546 7.24532 4.22404 7.24532 4.22404C7.27661 4.03632 7.29896 3.83965 7.29896 3.63852C7.29002 1.39028 5.25186 -0.379706 2.92316 0.0717296C1.50628 0.348848 0.36205 1.48861 0.0849316 2.90996C-0.366504 5.23865 1.40348 7.27682 3.65172 7.27682C3.82604 7.27682 4.00035 7.25894 4.16573 7.23659L4.1255 7.27682C4.1255 7.27682 5.21163 7.12038 6.93692 8.91271C8.40296 10.4369 8.22418 12.4929 8.22418 12.4929H8.22865C8.0588 13.0025 7.96494 13.5477 7.96494 14.1199C7.96494 14.6383 8.03645 15.4384 8.1616 16.3055C8.08562 17.0967 7.94706 17.7001 6.6598 18.4822C5.14458 19.403 4.34452 19.1572 3.6249 19.0857C2.82483 18.7102 1.84151 18.7504 1.03697 19.3315C0.11175 20.0019 -0.250293 21.2534 0.169855 22.3127C0.741971 23.7564 2.41362 24.342 3.74111 23.6313C4.15679 23.4078 4.48754 23.086 4.7155 22.7061C4.89428 22.4066 5.01496 21.7585 5.35913 21.3428C5.94912 20.7841 6.38268 20.5249 7.54926 19.9125C8.78736 19.2644 9.36394 18.8354 10.5037 19.0588C11.5228 19.3047 12.3497 19.3404 13.2749 19.3225C16.0461 19.2689 18.3435 16.9447 18.3748 14.1735C18.3837 13.2438 18.1468 12.3678 17.7311 11.6079C17.8518 11.2638 18.1155 10.6738 18.6787 10.0078C19.3447 9.21218 20.6677 9.01998 20.8286 8.99764C21.1996 9.07362 21.6019 9.07362 22.0175 8.96635C22.9517 8.72052 23.6803 7.93386 23.8546 6.98629Z" fill="url(#paint0_linear_73_1899)"/>
<path d="M25.5681 18.4367C27.4515 18.1303 28.7299 16.3551 28.4235 14.4717C28.1172 12.5883 26.342 11.3098 24.4586 11.6162C22.5751 11.9226 21.2967 13.6978 21.6031 15.5812C21.9095 17.4646 23.6847 18.7431 25.5681 18.4367Z" fill="url(#paint1_linear_73_1899)"/>
<path d="M14.3432 4.85423C15.398 4.85423 16.2562 4.00052 16.2562 2.94121C16.2562 1.8819 15.4025 1.0282 14.3432 1.0282C13.2839 1.0282 12.4302 1.8819 12.4302 2.94121C12.4302 4.00052 13.2839 4.85423 14.3432 4.85423Z" fill="url(#paint2_linear_73_1899)"/>
<path d="M5.02378 14.0081C5.02378 12.9533 4.17008 12.0951 3.11077 12.0951C2.05146 12.0951 1.19775 12.9488 1.19775 14.0081C1.19775 15.0674 2.05146 15.9211 3.11077 15.9211C4.17008 15.9211 5.02378 15.0674 5.02378 14.0081Z" fill="url(#paint3_linear_73_1899)"/>
</g>
<defs>
<linearGradient id="paint0_linear_73_1899" x1="11.9474" y1="23.9352" x2="11.9474" y2="0.000214738" gradientUnits="userSpaceOnUse">
<stop stop-color="#8551F7"/>
<stop offset="0.36" stop-color="#8371F7"/>
<stop offset="0.41" stop-color="#767CF8"/>
<stop offset="0.56" stop-color="#5A97FB"/>
<stop offset="0.71" stop-color="#45AAFD"/>
<stop offset="0.86" stop-color="#39B6FE"/>
<stop offset="1" stop-color="#35BAFF"/>
</linearGradient>
<linearGradient id="paint1_linear_73_1899" x1="25.0113" y1="18.4815" x2="25.0113" y2="11.5669" gradientUnits="userSpaceOnUse">
<stop stop-color="#856EF7"/>
<stop offset="1" stop-color="#5D94FB"/>
</linearGradient>
<linearGradient id="paint2_linear_73_1899" x1="14.3432" y1="4.85423" x2="14.3432" y2="1.0282" gradientUnits="userSpaceOnUse">
<stop stop-color="#42BFFF"/>
<stop offset="1" stop-color="#3FA9F5"/>
</linearGradient>
<linearGradient id="paint3_linear_73_1899" x1="3.11524" y1="15.9211" x2="3.11524" y2="12.0951" gradientUnits="userSpaceOnUse">
<stop stop-color="#8081F8"/>
<stop offset="1" stop-color="#5899FB"/>
</linearGradient>
<clipPath id="clip0_73_1899">
<rect width="30" height="26" fill="white"/>
</clipPath>
</defs>
</svg>
