<svg width="202" height="32" viewBox="0 0 202 32" fill="none" xmlns="http://www.w3.org/2000/svg">
<path d="M29.7354 8.5978C30.0874 6.66691 28.6682 4.97806 26.8308 4.87904C25.9506 4.82953 25.1199 5.23111 24.5093 5.86374C23.5356 6.87595 23.4311 7.76163 23.5741 8.55929C23.5741 8.55929 23.7007 9.43397 22.2539 10.8258C21.4287 11.6179 20.411 11.816 19.8334 11.8545C18.8817 11.2933 17.7759 10.9688 16.5932 10.9688C15.9771 10.9688 15.383 11.0623 14.8163 11.2218C14.8163 11.2218 13.2045 10.9468 11.1911 9.26894C9.59028 7.93216 9.29322 5.19811 9.29322 5.19811C9.33173 4.96706 9.35924 4.72501 9.35924 4.47746C9.34824 1.7104 6.83972 -0.468044 3.97364 0.0875689C2.22979 0.428638 0.821502 1.83142 0.480433 3.58078C-0.0751802 6.44686 2.10326 8.95537 4.87032 8.95537C5.08487 8.95537 5.29941 8.93337 5.50295 8.90586L5.45344 8.95537C5.45344 8.95537 6.79021 8.76283 8.91365 10.9688C10.718 12.8447 10.498 15.3752 10.498 15.3752H10.5035C10.2944 16.0023 10.1789 16.6734 10.1789 17.3776C10.1789 18.0157 10.2669 19.0004 10.421 20.0676C10.3274 21.0413 10.1569 21.784 8.57258 22.7467C6.7077 23.8799 5.723 23.5773 4.83732 23.4893C3.85262 23.0272 2.64237 23.0767 1.65217 23.7919C0.513439 24.6171 0.0678489 26.1574 0.584954 27.4611C1.2891 29.238 3.34651 29.9586 4.98035 29.084C5.49195 28.8089 5.89903 28.4128 6.17959 27.9452C6.39964 27.5767 6.54817 26.779 6.97175 26.2674C7.6979 25.5798 8.23151 25.2607 9.6673 24.507C11.1911 23.7094 11.9008 23.1813 13.3035 23.4563C14.5578 23.7589 15.5755 23.8029 16.7142 23.7809C20.1249 23.7149 22.9525 20.8543 22.991 17.4436C23.002 16.2994 22.7104 15.2211 22.1988 14.286C22.3474 13.8624 22.6719 13.1362 23.3651 12.3166C24.1847 11.3374 25.8131 11.1008 26.0111 11.0733C26.4677 11.1668 26.9628 11.1668 27.4744 11.0348C28.6241 10.7322 29.5208 9.76404 29.7354 8.5978Z" fill="url(#paint0_linear_64_137)"/>
<path d="M31.8443 22.6905C34.1623 22.3134 35.7358 20.1286 35.3587 17.8105C34.9816 15.4925 32.7967 13.9191 30.4787 14.2962C28.1606 14.6733 26.5872 16.8581 26.9643 19.1761C27.3414 21.4942 29.5262 23.0676 31.8443 22.6905Z" fill="url(#paint1_linear_64_137)"/>
<path d="M18.029 5.97376C19.3273 5.97376 20.3835 4.92304 20.3835 3.61928C20.3835 2.31551 19.3328 1.2648 18.029 1.2648C16.7253 1.2648 15.6746 2.31551 15.6746 3.61928C15.6746 4.92304 16.7253 5.97376 18.029 5.97376Z" fill="url(#paint2_linear_64_137)"/>
<path d="M6.55905 17.2401C6.55905 15.9418 5.50834 14.8856 4.20458 14.8856C2.90081 14.8856 1.8501 15.9363 1.8501 17.2401C1.8501 18.5438 2.90081 19.5945 4.20458 19.5945C5.50834 19.5945 6.55905 18.5438 6.55905 17.2401Z" fill="url(#paint3_linear_64_137)"/>
<path d="M50.9532 25.8383V8.76828H45.6611V4.98901H60.4976V8.76828H55.2936V25.8438H50.9532V25.8383Z" fill="white"/>
<path d="M82.8101 25.8383V4.98901H87.0074L94.819 15.3476H92.8606L100.447 4.98901H104.644V25.8438H100.304V9.77499L102.042 10.1656L94.0103 20.5242H93.4492L85.6981 10.1656L87.1559 9.77499V25.8438H82.8156L82.8101 25.8383Z" fill="white"/>
<path d="M112.758 26.1738C111.658 26.1738 110.706 25.9978 109.903 25.6402C109.1 25.2881 108.484 24.7765 108.055 24.1164C107.626 23.4563 107.411 22.6641 107.411 21.7509C107.411 20.8927 107.609 20.1336 108 19.468C108.39 18.8078 108.995 18.2522 109.804 17.8011C110.618 17.3555 111.63 17.0365 112.841 16.8494L117.517 16.0958V19.1764L113.6 19.875C113 19.9851 112.544 20.1776 112.23 20.4472C111.911 20.7167 111.757 21.1073 111.757 21.6079C111.757 22.0755 111.933 22.4386 112.291 22.6971C112.643 22.9612 113.083 23.0877 113.605 23.0877C114.293 23.0877 114.904 22.9392 115.426 22.6421C115.949 22.345 116.356 21.938 116.642 21.4264C116.934 20.9147 117.077 20.3481 117.077 19.732V15.7602C117.077 15.1826 116.846 14.6985 116.389 14.3024C115.932 13.9118 115.311 13.7138 114.53 13.7138C113.748 13.7138 113.127 13.9173 112.555 14.3299C111.983 14.7425 111.57 15.2816 111.311 15.9527L107.95 14.3574C108.247 13.4992 108.726 12.7621 109.375 12.146C110.03 11.5298 110.811 11.0567 111.724 10.7212C112.637 10.3856 113.638 10.2151 114.717 10.2151C116.004 10.2151 117.143 10.4461 118.133 10.9137C119.123 11.3813 119.893 12.0304 120.443 12.8611C120.993 13.6918 121.268 14.66 121.268 15.7602V25.8382H117.352V23.3737L118.303 23.2032C117.858 23.8743 117.363 24.43 116.818 24.87C116.279 25.3101 115.668 25.6347 114.997 25.8492C114.326 26.0638 113.578 26.1683 112.758 26.1683V26.1738Z" fill="white"/>
<path d="M124.344 25.8383V10.5561H128.26V13.5818L128.035 12.9106C128.387 11.9974 128.964 11.3208 129.757 10.8807C130.549 10.4406 131.478 10.2206 132.54 10.2206C133.695 10.2206 134.708 10.4626 135.577 10.9467C136.446 11.4308 137.123 12.1075 137.607 12.9766C138.091 13.8458 138.333 14.858 138.333 16.0133V25.8383H134.136V16.9099C134.136 16.3158 134.02 15.7987 133.783 15.3696C133.552 14.9405 133.222 14.605 132.804 14.3629C132.386 14.1209 131.897 13.9998 131.335 13.9998C130.774 13.9998 130.307 14.1209 129.878 14.3629C129.449 14.605 129.118 14.9405 128.882 15.3696C128.651 15.7987 128.53 16.3103 128.53 16.9099V25.8383H124.333H124.344Z" fill="white"/>
<path d="M145.842 26.1738C144.742 26.1738 143.79 25.9978 142.987 25.6402C142.184 25.2881 141.568 24.7765 141.139 24.1164C140.709 23.4563 140.495 22.6641 140.495 21.7509C140.495 20.8927 140.693 20.1336 141.083 19.468C141.474 18.8078 142.079 18.2522 142.888 17.8011C143.702 17.3555 144.714 17.0365 145.924 16.8494L150.6 16.0958V19.1764L146.684 19.875C146.084 19.9851 145.627 20.1776 145.314 20.4472C144.995 20.7167 144.841 21.1073 144.841 21.6079C144.841 22.0755 145.017 22.4386 145.374 22.6971C145.726 22.9612 146.167 23.0877 146.689 23.0877C147.377 23.0877 147.987 22.9392 148.51 22.6421C149.033 22.345 149.44 21.938 149.726 21.4264C150.017 20.9147 150.16 20.3481 150.16 19.732V15.7602C150.16 15.1826 149.929 14.6985 149.473 14.3024C149.016 13.9118 148.394 13.7138 147.613 13.7138C146.832 13.7138 146.211 13.9173 145.638 14.3299C145.066 14.7425 144.654 15.2816 144.395 15.9527L141.034 14.3574C141.331 13.4992 141.81 12.7621 142.459 12.146C143.113 11.5298 143.895 11.0567 144.808 10.7212C145.721 10.3856 146.722 10.2151 147.8 10.2151C149.088 10.2151 150.226 10.4461 151.217 10.9137C152.207 11.3813 152.977 12.0304 153.527 12.8611C154.077 13.6918 154.352 14.66 154.352 15.7602V25.8382H150.435V23.3737L151.387 23.2032C150.941 23.8743 150.446 24.43 149.902 24.87C149.363 25.3101 148.752 25.6347 148.081 25.8492C147.41 26.0638 146.662 26.1683 145.842 26.1683V26.1738Z" fill="white"/>
<path d="M164.931 31.9995C163.754 31.9995 162.664 31.8015 161.658 31.4109C160.651 31.0203 159.787 30.4757 159.067 29.7716C158.346 29.0729 157.829 28.2477 157.515 27.2961L161.405 25.9263C161.608 26.6359 162.032 27.197 162.664 27.6041C163.297 28.0167 164.056 28.2202 164.931 28.2202C165.619 28.2202 166.218 28.0937 166.724 27.8407C167.23 27.5876 167.615 27.219 167.885 26.7349C168.155 26.2508 168.292 25.6787 168.292 25.0296V21.5309L169.106 22.5376C168.584 23.3958 167.913 24.0339 167.093 24.452C166.273 24.8701 165.31 25.0791 164.21 25.0791C162.791 25.0791 161.526 24.76 160.403 24.1109C159.287 23.4673 158.407 22.5816 157.774 21.4539C157.141 20.3261 156.822 19.0444 156.822 17.6031C156.822 16.1618 157.141 14.891 157.774 13.7798C158.407 12.6686 159.276 11.7994 160.376 11.1613C161.476 10.5286 162.725 10.2096 164.128 10.2096C165.228 10.2096 166.191 10.4296 167.01 10.8697C167.83 11.3098 168.529 11.9754 169.112 12.8721L168.578 13.8788V10.5451H172.495V25.0186C172.495 26.3609 172.17 27.5601 171.516 28.6163C170.861 29.6725 169.97 30.4977 168.842 31.0918C167.714 31.6914 166.411 31.9885 164.936 31.9885L164.931 31.9995ZM164.793 21.2778C165.503 21.2778 166.119 21.1293 166.642 20.8322C167.164 20.5352 167.571 20.1116 167.858 19.5725C168.149 19.0334 168.292 18.3952 168.292 17.6691C168.292 16.9429 168.144 16.3048 167.846 15.7492C167.549 15.1991 167.137 14.77 166.614 14.4619C166.092 14.1539 165.487 13.9999 164.793 13.9999C164.1 13.9999 163.457 14.1539 162.907 14.4619C162.356 14.77 161.927 15.1991 161.619 15.7492C161.311 16.2993 161.157 16.9374 161.157 17.6691C161.157 18.4007 161.311 19.0059 161.619 19.545C161.927 20.0841 162.356 20.5132 162.907 20.8212C163.457 21.1293 164.084 21.2833 164.793 21.2833V21.2778Z" fill="white"/>
<path d="M182.93 26.1738C181.308 26.1738 179.899 25.8162 178.706 25.0956C177.512 24.3749 176.588 23.4123 175.933 22.1965C175.278 20.9863 174.954 19.6385 174.954 18.1642C174.954 16.6899 175.295 15.2706 175.977 14.0769C176.659 12.8831 177.578 11.9424 178.733 11.2493C179.888 10.5616 181.198 10.2151 182.65 10.2151C183.86 10.2151 184.933 10.4076 185.868 10.7872C186.803 11.1723 187.59 11.7059 188.234 12.399C188.877 13.0922 189.367 13.8898 189.702 14.792C190.038 15.6997 190.208 16.6789 190.208 17.7461C190.208 18.0432 190.192 18.3402 190.164 18.6263C190.137 18.9178 190.087 19.1654 190.01 19.3689H178.563V16.2883H187.634L185.648 17.7461C185.835 16.9429 185.824 16.2278 185.621 15.6062C185.417 14.979 185.054 14.4839 184.542 14.1209C184.031 13.7578 183.398 13.5763 182.655 13.5763C181.913 13.5763 181.302 13.7523 180.78 14.1099C180.257 14.4674 179.866 14.9845 179.602 15.6777C179.338 16.3708 179.239 17.207 179.294 18.1972C179.217 19.0554 179.322 19.809 179.602 20.4637C179.883 21.1183 180.312 21.6244 180.89 21.9875C181.467 22.3505 182.166 22.5321 182.991 22.5321C183.739 22.5321 184.377 22.3835 184.911 22.0865C185.444 21.7894 185.857 21.3768 186.154 20.8542L189.515 22.4496C189.218 23.1977 188.745 23.8468 188.102 24.408C187.458 24.9691 186.699 25.4037 185.819 25.7117C184.944 26.0198 183.981 26.1738 182.936 26.1738H182.93Z" fill="white"/>
<path d="M192.673 25.8382V10.5561H196.59V14.2254L196.309 13.6918C196.645 12.4045 197.2 11.5298 197.976 11.0732C198.752 10.6167 199.67 10.3856 200.732 10.3856H201.629V14.0218H200.314C199.285 14.0218 198.455 14.3354 197.822 14.957C197.189 15.5842 196.87 16.4643 196.87 17.6031V25.8327H192.673V25.8382Z" fill="white"/>
<path d="M64.783 17.8341V14.1979H75.5321V17.8341H64.783Z" fill="white"/>
<defs>
<linearGradient id="paint0_linear_64_137" x1="15.0804" y1="29.458" x2="15.0804" y2="-0.000449349" gradientUnits="userSpaceOnUse">
<stop stop-color="#8551F7"/>
<stop offset="0.36" stop-color="#8371F7"/>
<stop offset="0.41" stop-color="#767CF8"/>
<stop offset="0.56" stop-color="#5A97FB"/>
<stop offset="0.71" stop-color="#45AAFD"/>
<stop offset="0.86" stop-color="#39B6FE"/>
<stop offset="1" stop-color="#35BAFF"/>
</linearGradient>
<linearGradient id="paint1_linear_64_137" x1="31.159" y1="22.7457" x2="31.159" y2="14.2355" gradientUnits="userSpaceOnUse">
<stop stop-color="#856EF7"/>
<stop offset="1" stop-color="#5D94FB"/>
</linearGradient>
<linearGradient id="paint2_linear_64_137" x1="18.029" y1="5.97376" x2="18.029" y2="1.2648" gradientUnits="userSpaceOnUse">
<stop stop-color="#42BFFF"/>
<stop offset="1" stop-color="#3FA9F5"/>
</linearGradient>
<linearGradient id="paint3_linear_64_137" x1="4.21008" y1="19.5945" x2="4.21008" y2="14.8856" gradientUnits="userSpaceOnUse">
<stop stop-color="#8081F8"/>
<stop offset="1" stop-color="#5899FB"/>
</linearGradient>
</defs>
</svg>
