<svg width="16" height="16" viewBox="0 0 16 16" fill="none" xmlns="http://www.w3.org/2000/svg">
<g clip-path="url(#clip0_79_6824)">
<path d="M14.4504 10.7252C14.005 11.7786 13.3083 12.7068 12.4213 13.4287C11.5342 14.1507 10.4838 14.6443 9.36195 14.8665C8.24005 15.0887 7.0808 15.0327 5.98555 14.7034C4.8903 14.3741 3.8924 13.7815 3.07908 12.9774C2.26577 12.1733 1.66181 11.1822 1.32 10.0908C0.978196 8.99939 0.908954 7.84086 1.11833 6.7165C1.3277 5.59214 1.80932 4.53619 2.52107 3.64096C3.23282 2.74573 4.15304 2.03848 5.20127 1.58105" stroke="white" stroke-width="1.5" stroke-linecap="round" stroke-linejoin="round"/>
<path d="M15.0036 8.00164C15.0036 7.08217 14.8225 6.17171 14.4706 5.32223C14.1188 4.47275 13.603 3.7009 12.9529 3.05073C12.3027 2.40057 11.5308 1.88483 10.6814 1.53297C9.83189 1.1811 8.92142 1 8.00195 1V8.00164H15.0036Z" stroke="white" stroke-width="1.5" stroke-linecap="round" stroke-linejoin="round"/>
</g>
<defs>
<clipPath id="clip0_79_6824">
<rect width="16" height="16" fill="white"/>
</clipPath>
</defs>
</svg>
