<svg width="16" height="16" viewBox="0 0 16 16" fill="none" xmlns="http://www.w3.org/2000/svg">
<path d="M1 2H5.2C5.94261 2 6.6548 2.295 7.1799 2.8201C7.705 3.3452 8 4.05739 8 4.8V14.6C8 14.043 7.77875 13.5089 7.38492 13.1151C6.9911 12.7212 6.45695 12.5 5.9 12.5H1V2Z" stroke="white" stroke-width="1.5" stroke-linecap="round" stroke-linejoin="round"/>
<path d="M15 2H10.8C10.0574 2 9.3452 2.295 8.8201 2.8201C8.295 3.3452 8 4.05739 8 4.8V14.6C8 14.043 8.22125 13.5089 8.61508 13.1151C9.0089 12.7212 9.54305 12.5 10.1 12.5H15V2Z" stroke="white" stroke-width="1.5" stroke-linecap="round" stroke-linejoin="round"/>
</svg>
